<?xml version="1.0" encoding="iso-8859-1"?>
<!-- Generator: Adobe Illustrator 19.0.0, SVG Export Plug-In . SVG Version: 6.00 Build 0)  -->
<svg version="1.1" id="Capa_1" xmlns="http://www.w3.org/2000/svg" xmlns:xlink="http://www.w3.org/1999/xlink" x="0px" y="0px"
	 viewBox="0 0 512 512" style="enable-background:new 0 0 512 512;" xml:space="preserve">
<rect x="241" y="370" style="fill:#FABE5C;" width="30" height="45"/>
<rect x="211" y="25" style="fill:#637B49;" width="30" height="73.03"/>
<rect x="271" y="25" style="fill:#415D49;" width="30" height="73.03"/>
<g>
	<polygon style="fill:#203F49;" points="481,452 451,452 451,265 346,265 346,235 481,235 	"/>
	<polygon style="fill:#203F49;" points="421,512 391,512 391,325 346,325 346,295 421,295 	"/>
	<polygon style="fill:#203F49;" points="391,145 256,145 256,115 361,115 361,0 391,0 	"/>
</g>
<g>
	<polygon style="fill:#415D49;" points="61,452 31,452 31,235 166,235 166,265 61,265 	"/>
	<polygon style="fill:#415D49;" points="121,512 91,512 91,295 166,295 166,325 121,325 	"/>
</g>
<polygon style="fill:#203F49;" points="451,0 421,0 421,175 256,175 256,205 451,205 "/>
<g>
	<polygon style="fill:#415D49;" points="91,175 91,0 61,0 61,205 256,205 256,175 	"/>
	<polygon style="fill:#415D49;" points="256,145 121,145 121,0 151,0 151,115 256,115 	"/>
</g>
<path style="fill:#849A49;" d="M331,130c0-41.355-33.645-75-75-75l-40,150h115V130z"/>
<path style="fill:#A5B849;" d="M181,130v75h75V55C214.645,55,181,88.645,181,130z"/>
<path id="SVGCleanerId_0" style="fill:#849A49;" d="M151,175v105c0,57.897,47.103,105,105,105V175H151z"/>
<path id="SVGCleanerId_1" style="fill:#637B49;" d="M256,175v210c57.897,0,105-47.103,105-105V175H256z"/>
<g>
	<path id="SVGCleanerId_0_1_" style="fill:#849A49;" d="M151,175v105c0,57.897,47.103,105,105,105V175H151z"/>
</g>
<g>
	<path id="SVGCleanerId_1_1_" style="fill:#637B49;" d="M256,175v210c57.897,0,105-47.103,105-105V175H256z"/>
</g>
<path style="fill:#415D49;" d="M256,205l-30,75l30,75c41.355,0,75-33.645,75-75v-75H256z"/>
<path style="fill:#637B49;" d="M181,205v75c0,41.355,33.645,75,75,75V205H181z"/>
<g>
</g>
<g>
</g>
<g>
</g>
<g>
</g>
<g>
</g>
<g>
</g>
<g>
</g>
<g>
</g>
<g>
</g>
<g>
</g>
<g>
</g>
<g>
</g>
<g>
</g>
<g>
</g>
<g>
</g>
</svg>
